<?xml version="1.0" encoding="utf-8"?>
<!-- Generator: Adobe Illustrator 24.2.1, SVG Export Plug-In . SVG Version: 6.00 Build 0)  -->
<svg version="1.1" id="Layer_1" xmlns="http://www.w3.org/2000/svg" xmlns:xlink="http://www.w3.org/1999/xlink" x="0px" y="0px"
	 width="46px" height="46px" viewBox="0 0 46 46" style="enable-background:new 0 0 46 46;" xml:space="preserve">
<style type="text/css">
	.st0{fill:none;stroke:#000000;stroke-width:0.5;stroke-linecap:round;stroke-linejoin:round;}
	.st1{fill:none;stroke:#000000;stroke-width:0.5;stroke-linecap:round;stroke-linejoin:round;stroke-miterlimit:10;}
</style>
<g>
	<g>
		<path class="st0" d="M22.1,27H21l-1.4-1.4v-3.9c0-0.4,0.2-0.7,0.6-0.7h9.1v-4c0-0.3,0.2-0.5,0.5-0.5c0,0,4.3-0.1,5.9,0.2
			c1.1,0.3,3.7,3,4.6,3.9l4.1,0.5c0.4,0.1,0.7,0.5,0.7,0.9v3.4l-1,1.3h-0.7"/>
		<line class="st0" x1="27" y1="27" x2="38.4" y2="27"/>
		<path class="st1" d="M33.4,21.4h-2.3v-2.9c0-0.2,0.1-0.3,0.3-0.3h2"/>
		<path class="st1" d="M33.4,18.2v3.2h4.9c-0.7-0.7-2.5-3.2-3.6-3.2H33.4z"/>
		<path class="st0" d="M27,27c0,1.4-1.1,2.5-2.5,2.5S22,28.4,22,27s1.1-2.4,2.5-2.4C25.9,24.5,27,25.6,27,27z"/>
		<line class="st1" x1="33.8" y1="23.4" x2="34.7" y2="23.4"/>
		<path class="st0" d="M43.3,27c0,1.4-1.1,2.5-2.4,2.5s-2.5-1.1-2.5-2.5s1.1-2.4,2.5-2.4C42.2,24.5,43.3,25.6,43.3,27z"/>
		<line class="st1" x1="44.1" y1="22.9" x2="45" y2="22.9"/>
	</g>
	<g>
		<path class="st1" d="M18.8,6.4c-0.1,0.2-0.2,0.3-0.4,0.3h-5.8V3.3h2.2c0.7,0,0.8,0.1,1.7,0.8C17,4.5,18.6,5.9,18.7,6
			C18.8,6.1,18.8,6.2,18.8,6.4z"/>
		<path class="st1" d="M10.3,12.1c0,1.3-1,2.3-2.3,2.3s-2.3-1-2.3-2.3s1-2.3,2.3-2.3S10.3,10.8,10.3,12.1z"/>
		<path class="st1" d="M23.5,12.1c0,1.3-1,2.3-2.3,2.3s-2.3-1-2.3-2.3s1-2.3,2.3-2.3S23.5,10.8,23.5,12.1z"/>
		<line class="st1" x1="13.7" y1="8.4" x2="14.6" y2="8.4"/>
		<line class="st1" x1="8.8" y1="8.4" x2="9.6" y2="8.4"/>
		<line class="st1" x1="25" y1="8.6" x2="25.9" y2="8.6"/>
		<line class="st1" x1="10.3" y1="12.1" x2="18.9" y2="12.1"/>
		<path class="st1" d="M23.5,12.1h1.1c0.1,0,0.2,0,0.3-0.1l0.9-1c0.1-0.1,0.1-0.2,0.1-0.3V8.3c0-0.6-0.5-1.2-1.1-1.4l-3.5-1.1
			c0,0-2.6-2.2-3.4-2.8c-1.1-0.9-1.6-1.2-2.9-1.2h-4.5c-0.9,0-1.3,0.3-1.8,0.6C7.5,3.2,5.4,5.1,5,5.6L3.8,5.8
			C3.2,5.9,2.7,6.5,2.7,7.1v3.2c0,0.1,0,0.2,0.1,0.3L4.1,12c0.1,0.1,0.2,0.1,0.3,0.1h1.2"/>
		<path class="st1" d="M12.6,6.7H8.7c-0.1,0-0.3-0.1-0.4-0.2c-0.1-0.1-0.1-0.3,0-0.4c0,0,0.3-0.7,0.9-1.5c0.8-1.1,1.5-1.3,1.6-1.3
			h1.9L12.6,6.7L12.6,6.7z"/>
	</g>
	<g>
		<line class="st1" x1="25.7" y1="37.6" x2="26.9" y2="37.6"/>
		<path class="st1" d="M24.6,41.9h1.1l1.1-1.1v-4c0-0.4-0.3-0.8-0.7-0.9l-4-0.5c-1-0.9-3.9-3.8-5-4.1C15.7,30.9,4.8,31,4.8,31
			c-1.7,0-1.9,1.3-2.2,1.9l-0.9,2.7C1.3,35.7,1,36.1,1,36.5v4.2l1.5,1.1h1.2"/>
		<line class="st1" x1="8.3" y1="41.9" x2="20" y2="41.9"/>
		<path class="st1" d="M8.1,35.6H4.7c-0.5,0-0.7-0.4-0.6-0.8l0.5-2c0-0.2,0.1-0.3,0.3-0.3h3.2V35.6z"/>
		<path class="st1" d="M13.6,35.6h6.2c-0.7-0.6-2.6-2.7-3.7-3c-0.3-0.1-1.5-0.1-2.5-0.1C13.6,32.5,13.6,35.6,13.6,35.6z"/>
		<path class="st0" d="M8.3,41.9c0,1.3-1,2.3-2.3,2.3s-2.3-1-2.3-2.3s1-2.3,2.3-2.3S8.3,40.6,8.3,41.9z"/>
		<line class="st1" x1="8.6" y1="37.6" x2="9.4" y2="37.6"/>
		<line class="st1" x1="14.5" y1="37.6" x2="15.3" y2="37.6"/>
		<path class="st0" d="M24.6,41.9c0,1.3-1,2.3-2.3,2.3s-2.3-1-2.3-2.3s1-2.3,2.3-2.3C23.6,39.6,24.6,40.6,24.6,41.9z"/>
		<rect x="8.1" y="32.5" class="st1" width="5.5" height="3.1"/>
	</g>
</g>
</svg>
