<?xml version="1.0" encoding="utf-8"?>
<!-- Generator: Adobe Illustrator 24.2.1, SVG Export Plug-In . SVG Version: 6.00 Build 0)  -->
<svg version="1.1" id="Layer_1" xmlns="http://www.w3.org/2000/svg" xmlns:xlink="http://www.w3.org/1999/xlink" x="0px" y="0px"
	 width="46px" height="46px" viewBox="0 0 46 46" style="enable-background:new 0 0 46 46;" xml:space="preserve">
<style type="text/css">
	.st0{fill:none;stroke:#000000;stroke-width:0.5;stroke-linecap:round;stroke-linejoin:round;stroke-miterlimit:10;}
</style>
<g>
	<g>
		<g>
			<g>
				<path class="st0" d="M32.9,31.1l8-4.1c1.6-0.8,3.4-0.5,4.1,0.9c0.7,1.4,0.1,3.2-1.5,4l-16.6,8.9l-0.9,0.2l-15.5,0.4
					c0,0-2,0.6-4.4,3.3"/>
				<path class="st0" d="M0.7,36.6l7-6.5c3.4-2.3,7.5-1,7.5-1c2,0.5,5.6,0.6,5.6,0.6h6.1c1.8,0,3.3,1.3,3.3,2.9
					c0,1.6-1.5,2.9-3.3,2.9h-8.4"/>
			</g>
		</g>
	</g>
	<g>
		<g>
			<path class="st0" d="M21.3,19.6c0,1.9,1.6,3.4,3.6,3.4s3.6-1.5,3.6-3.4c0-1.9-1.9-2.7-3.6-3.5c-1.7-0.9-3.7-1.7-3.7-3.5
				c0-1.9,1.6-3.4,3.6-3.4s3.6,1.5,3.6,3.4"/>
			<line class="st0" x1="24.9" y1="9.1" x2="24.9" y2="6.9"/>
			<line class="st0" x1="24.9" y1="25.3" x2="24.9" y2="23.1"/>
		</g>
	</g>
	<g>
		<g>
			<g>
				<path class="st0" d="M12.4,25.2c-1.7-2.5-2.8-5.5-2.8-8.8c0-4.3,1.8-8.2,4.6-10.9"/>
			</g>
			<g>
				<path class="st0" d="M18.6,2.6c1.9-0.9,4.1-1.4,6.3-1.4c8.4,0,15.2,6.8,15.2,15.2c0,2.9-0.8,5.6-2.2,7.9"/>
			</g>
		</g>
	</g>
</g>
</svg>
