<?xml version="1.0" encoding="utf-8"?>
<!-- Generator: Adobe Illustrator 24.2.1, SVG Export Plug-In . SVG Version: 6.00 Build 0)  -->
<svg version="1.1" id="Layer_1" xmlns="http://www.w3.org/2000/svg" xmlns:xlink="http://www.w3.org/1999/xlink" x="0px" y="0px"
	 width="46px" height="46px" viewBox="0 0 46 46" style="enable-background:new 0 0 46 46;" xml:space="preserve">
<style type="text/css">
	.st0{fill:none;stroke:#000000;stroke-width:0.5;stroke-linecap:round;stroke-linejoin:round;}
	.st1{fill:none;stroke:#000000;stroke-width:0.5;stroke-linecap:round;stroke-linejoin:round;stroke-miterlimit:10;}
	.st2{fill:none;stroke:#000000;stroke-width:0.5;stroke-linecap:round;stroke-linejoin:round;stroke-dasharray:2.2925;}
</style>
<g>
	<polyline class="st0" points="28.7,31.2 1.5,31.2 1.5,7.5 44.5,7.5 44.5,31.2 34.4,31.2 	"/>
	<path class="st0" d="M6.3,31.2c0.2-0.5,0.3-1,0.3-1.6c0-2.1-1.7-3.9-3.9-3.9c-0.4,0-0.9,0.1-1.2,0.2"/>
	<path class="st0" d="M39.1,31.2c-0.2-0.5-0.3-1-0.3-1.6c0-2.1,1.7-3.9,3.9-3.9c0.4,0,0.9,0.1,1.2,0.2"/>
	<path class="st0" d="M6.3,7.5c0.2,0.5,0.3,1,0.3,1.6c0,2.1-1.7,3.9-3.9,3.9c-0.4,0-0.9-0.1-1.2-0.2"/>
	<path class="st0" d="M39.1,7.5c-0.2,0.5-0.3,1-0.3,1.6c0,2.1,1.7,3.9,3.9,3.9c0.4,0,0.9-0.1,1.2-0.2"/>
	<path class="st0" d="M28.3,19.4c0,4.5-3.3,8.2-7.4,8.2c-4.1,0-7.4-3.7-7.4-8.2s3.3-8.2,7.4-8.2C24.9,11.1,28.3,14.8,28.3,19.4z"/>
	<path class="st1" d="M22,36.7c-1,1-1.4,2.3-1.4,3.6c0,1.3,0.5,2.5,1.5,3.5c2,1.9,5.2,1.9,7.1-0.1c1-1,1.4-2.3,1.4-3.6
		c0-1.1-0.4-2.3-1.2-3.2c0.5-0.7,1.6-2.3,2.1-3.1c0.4,0.5,1.7,2.3,2.3,3.1c-0.9,1-1.3,2.2-1.2,3.4c0,1.3,0.5,2.5,1.5,3.5
		c2,1.9,5.2,1.9,7.1-0.1c1-1,1.4-2.3,1.4-3.6c0-1.3-0.5-2.5-1.5-3.5c-1.2-1.1-2.8-1.6-4.3-1.3l-2.9-4.7c1.9-2.7,3.9-5.6,4.9-7.5
		c1.1-2.3,0.9-4.3-1.7-6.9L26.5,35.2C24.9,34.9,23.2,35.4,22,36.7z M39.2,38.4c0.9,0.9,1,2.4,0,3.3c-0.9,0.9-2.4,1-3.3,0
		c-0.9-0.9-1-2.4,0-3.3C36.8,37.5,38.3,37.5,39.2,38.4z M27.2,38.4c0.9,0.9,1,2.4,0,3.3c-0.9,0.9-2.4,1-3.3,0c-0.9-0.9-1-2.4,0-3.3
		C24.8,37.6,26.3,37.5,27.2,38.4z"/>
	<line class="st2" x1="31.7" y1="0.9" x2="31.7" y2="4.1"/>
	<line class="st2" x1="31.7" y1="9.7" x2="31.7" y2="13"/>
	<line class="st2" x1="31.7" y1="17.5" x2="31.7" y2="20.8"/>
</g>
</svg>
