<?xml version="1.0" encoding="utf-8"?>
<!-- Generator: Adobe Illustrator 24.2.1, SVG Export Plug-In . SVG Version: 6.00 Build 0)  -->
<svg version="1.1" id="Layer_1" xmlns="http://www.w3.org/2000/svg" xmlns:xlink="http://www.w3.org/1999/xlink" x="0px" y="0px"
	 width="46px" height="46px" viewBox="0 0 46 46" style="enable-background:new 0 0 46 46;" xml:space="preserve">
<style type="text/css">
	.st0{fill:#231F20;}
	.st1{fill:none;stroke:#000000;stroke-width:0.5;stroke-linecap:round;stroke-linejoin:round;stroke-miterlimit:10;}
	.st2{fill:none;stroke:#011520;stroke-width:0.3315;stroke-linecap:round;stroke-linejoin:round;stroke-miterlimit:10;}
	.st3{fill:none;stroke:#011520;stroke-width:0.1657;stroke-linecap:round;stroke-linejoin:round;stroke-miterlimit:10;}
</style>
<g>
	<g>
		<g>
			<path d="M15.2,42.4v-6.7l-1.8,0.9c-0.3-0.5-0.5-0.9-0.6-1.1c-0.1-0.2-0.1-0.5-0.1-0.6c0-0.3,0-0.5,0.1-0.6
				c0.1-0.1,0.3-0.3,0.6-0.4l2.3-1.2c0.3-0.1,0.5-0.2,0.7-0.3c0.2,0,0.4-0.1,0.6-0.1c0.4,0,0.8,0.1,1.2,0.3v10H15.2z"/>
			<path d="M22,32.1h6.2c0,0.4,0.1,0.7,0.1,1c0,0.4-0.1,0.8-0.4,1.1c-0.3,0.2-0.7,0.4-1.2,0.4h-2.4l-0.1,1.2
				c0.4-0.1,0.8-0.1,1.2-0.1c1,0,1.9,0.3,2.4,0.8c0.6,0.5,0.8,1.3,0.8,2.3c0,0.8-0.2,1.5-0.5,2c-0.3,0.6-0.8,1-1.4,1.3
				c-0.6,0.3-1.3,0.4-2.1,0.4c-1.3,0-2.3-0.2-3.1-0.7c-0.2-0.1-0.3-0.2-0.4-0.4c-0.1-0.1-0.1-0.3-0.1-0.4c0-0.4,0.3-1.1,0.8-1.9
				c0.4,0.3,0.9,0.6,1.3,0.8c0.4,0.2,0.9,0.3,1.3,0.3c0.4,0,0.7-0.1,0.9-0.3c0.2-0.2,0.3-0.5,0.3-0.9c0-0.4-0.1-0.6-0.3-0.8
				c-0.2-0.2-0.5-0.3-0.9-0.3c-0.3,0-0.6,0-0.8,0.1c-0.2,0-0.5,0.2-0.8,0.3l-1.1-0.5L22,32.1z"/>
			<path d="M38.3,37.3c0,3.5-1.4,5.3-4.1,5.3c-1.4,0-2.4-0.4-3.1-1.3c-0.7-0.9-1-2.2-1-4c0-1.7,0.3-3,1.1-4c0.7-0.9,1.8-1.4,3.1-1.4
				c1.4,0,2.4,0.4,3.1,1.3C38,34.2,38.3,35.5,38.3,37.3z M35.2,37.3c0-1.1-0.1-1.8-0.2-2.3c-0.1-0.4-0.4-0.7-0.7-0.7
				c-0.4,0-0.6,0.2-0.8,0.6c-0.1,0.4-0.2,1.2-0.2,2.3c0,1.1,0.1,1.8,0.2,2.3c0.1,0.4,0.4,0.7,0.8,0.7c0.3,0,0.6-0.2,0.7-0.7
				C35.2,39.1,35.2,38.4,35.2,37.3z"/>
		</g>
		<path class="st0" d="M11.6,37.8c-0.2-0.3-0.4-0.6-0.7-0.9c-0.3-0.2-0.6-0.4-0.9-0.5c-0.3-0.1-0.7-0.2-1-0.4
			c-0.3-0.1-0.6-0.2-0.8-0.4c-0.2-0.1-0.3-0.3-0.3-0.5s0.1-0.3,0.3-0.4c0.2-0.1,0.4-0.2,0.7-0.2c0.1,0,0.3,0,0.5,0
			c0.2,0,0.4,0.1,0.6,0.1c0.2,0.1,0.4,0.1,0.6,0.2c0.2,0.1,0.4,0.2,0.6,0.3c0.2-0.3,0.4-0.6,0.5-0.8c0.1-0.2,0.2-0.4,0.2-0.6
			c0-0.2,0-0.4-0.1-0.5c-0.1-0.1-0.2-0.3-0.4-0.4c-0.2-0.1-0.5-0.3-1-0.4c-0.3-0.1-0.6-0.1-0.9-0.2v-0.9c0-0.3-0.2-0.5-0.5-0.5H7.3
			v1.5c-0.1,0-0.1,0-0.2,0c-0.4,0.2-0.8,0.3-1.2,0.6s-0.6,0.6-0.8,1c-0.2,0.4-0.3,0.8-0.3,1.4s0.1,0.9,0.2,1.3
			c0.2,0.3,0.4,0.6,0.6,0.9c0.3,0.2,0.5,0.4,0.9,0.5c0.3,0.1,0.6,0.2,0.9,0.3c0.2,0.1,0.4,0.1,0.6,0.2c0.2,0.1,0.3,0.1,0.5,0.2
			c0.1,0.1,0.2,0.2,0.3,0.3c0.1,0.1,0.1,0.2,0.1,0.4c0,0.5-0.3,0.8-1,0.8c-0.5,0-0.9-0.1-1.3-0.3c-0.4-0.1-0.8-0.3-1.2-0.6
			c-0.2,0.2-0.4,0.5-0.6,0.8c-0.2,0.3-0.2,0.5-0.2,0.8c0,0.2,0,0.3,0.1,0.5C4.8,41.8,5,41.9,5.1,42c0.3,0.2,0.6,0.3,1.1,0.4
			c0.3,0.1,0.6,0.1,1,0.2v0.8c0,0.3,0.2,0.5,0.5,0.5h1.5v-1.4c0.1,0,0.2,0,0.3-0.1c0.5-0.1,0.9-0.4,1.2-0.6c0.3-0.3,0.6-0.7,0.8-1.1
			c0.2-0.4,0.3-1,0.3-1.5C11.9,38.6,11.8,38.2,11.6,37.8z"/>
	</g>
	<g>
		<path class="st1" d="M24.1,17.2c0.7,0.7,1.1,2,1.1,2.7c0,0.7,0,1.3,0.5,1.9l5.4,5.5c0.8,0.8,2,0.8,2.8,0l3.3-3.3
			c0.8-0.8,0.8-2,0-2.8l-5.4-5.5c-0.5-0.5-1.1-0.5-1.7-0.6c-0.8,0-1.9-0.2-3-1"/>
		<polyline class="st1" points="23.1,11.6 18.5,7 17.3,4.8 14.6,3.1 13.1,4.7 14.7,7.3 17,8.6 21.6,13.2 		"/>
		<line class="st1" x1="29.7" y1="22.1" x2="33" y2="25.4"/>
		<line class="st1" x1="32" y1="19.8" x2="35.3" y2="23"/>
		<path class="st1" d="M31.2,10.1L21,20.4c0.5,1.7,0.2,3.6-1,4.9c-0.4,0.4-0.8,0.8-1.4,1.1c0,0-0.1,0-0.1,0c0,0-0.1-0.1-0.1-0.1
			L18.1,23l-3.6,0.3l0.3,3.5c0,0,0,0.1,0,0.1c0,0-0.1,0-0.1,0c-0.3-0.1-1.3-0.3-2.3-1.3c-1.9-1.9-2-5-0.3-7c1.4-1.6,3.5-2.2,5.5-1.5
			L27.9,6.8c-0.3-1.5,0.2-3,1.4-3.9c0.5-0.4,1-0.7,1.6-0.8c0,0,0.1,0,0.1,0c0,0,0,0.1,0,0.1l-0.3,2.9l2.8,0.2l0.2-2.7
			c0,0,0-0.1,0.1-0.1c0,0,0.1,0,0.1,0c0.4,0.2,0.8,0.5,1.1,0.9c1.5,1.7,1.3,4.4-0.4,5.9C33.7,10,32.5,10.3,31.2,10.1z"/>
	</g>
	<path class="st1" d="M42.8,32v2.9 M41.4,33.4h2.9"/>
	<path class="st2" d="M43.3,39.7v3.9 M41.4,41.7h3.9"/>
	<path class="st1" d="M2.7,28.1V32 M0.8,30.1h3.9"/>
	<path class="st3" d="M1.7,39.7v1.9 M0.8,40.7h1.9"/>
</g>
</svg>
