<?xml version="1.0" encoding="utf-8"?>
<!-- Generator: Adobe Illustrator 24.2.1, SVG Export Plug-In . SVG Version: 6.00 Build 0)  -->
<svg version="1.1" id="Layer_1" xmlns="http://www.w3.org/2000/svg" xmlns:xlink="http://www.w3.org/1999/xlink" x="0px" y="0px"
	 width="46px" height="46px" viewBox="0 0 46 46" style="enable-background:new 0 0 46 46;" xml:space="preserve">
<style type="text/css">
	.st0{fill:none;stroke:#000000;stroke-width:0.5;stroke-linecap:round;stroke-linejoin:round;stroke-miterlimit:10;}
</style>
<g>
	<g>
		<polygon class="st0" points="2.2,15.5 2.2,37.9 9.9,45.3 43.8,45.3 43.8,15.5 		"/>
		<rect x="2.2" y="5.6" class="st0" width="41.7" height="9.9"/>
		<g>
			<path class="st0" d="M10,0.7v9.9V0.7z"/>
			<path class="st0" d="M7.7,10.6h4.6H7.7z"/>
			<path class="st0" d="M18.7,0.7v9.9V0.7z"/>
			<path class="st0" d="M16.4,10.6H21H16.4z"/>
			<path class="st0" d="M27.4,0.7v9.9V0.7z"/>
			<path class="st0" d="M25,10.6h4.6H25z"/>
			<path class="st0" d="M36,0.7v9.9V0.7z"/>
			<path class="st0" d="M33.7,10.6h4.6H33.7z"/>
		</g>
		<rect x="4.1" y="35.7" class="st0" width="7.7" height="7.7"/>
	</g>
	<g>
		<path class="st0" d="M30.6,40.6c0-3.4-2.4-5.7-5.9-6.9l-3.7,4l-3.8-4c-3.5,1.1-6,3.5-6,6.9"/>
		<line class="st0" x1="20.9" y1="37.7" x2="20.9" y2="40.6"/>
		<path class="st0" d="M26,26.9c0.1,0.1,0.3,0.1,0.3,0.1c0.2,0,0.3-0.1,0.3-0.4c-0.1-0.5-0.3-1.1-0.4-1.6l-0.4-3.6
			c0-0.6-0.5-0.9-1.1-1.1c-0.6-0.1-1.9-0.5-2.8-0.7c-0.1-0.3-0.6-0.6-1.1-0.6s-0.9,0.2-1,0.6c-0.9,0.2-2.2,0.6-2.8,0.7
			c-0.6,0.1-1.1,0.5-1.1,1.1L15.5,25c-0.2,0.4-0.3,1-0.4,1.5c-0.1,0.2,0,0.4,0.3,0.4c0.1,0,0.2,0,0.3-0.1c1.9-0.9,3.5-1.4,5.1-1.4
			C22.6,25.5,24.2,26,26,26.9z"/>
		<path class="st0" d="M15.6,25.2c1.7-0.9,3.7-1.5,5.3-1.5s3.5,0.5,5.4,1.5"/>
		<path class="st0" d="M25.7,26.8c0,0.3,0.1,0.6,0.1,0.9c0,2.7-2.2,4.9-4.9,4.9S16,30.4,16,27.7c0-0.3,0-0.6,0.1-0.9"/>
		<g>
			<path class="st0" d="M17.1,33.7c0,0,0.4-0.6,0.4-2.5"/>
			<path class="st0" d="M24.6,33.7c0,0-0.4-0.6-0.4-2.5"/>
		</g>
	</g>
	<g>
		<path class="st0" d="M41.5,30.1L40.4,29c-0.1-0.1-0.2-0.1-0.3-0.2l-0.8-0.2l-7.2-7.2l-0.2-0.8c0-0.1-0.1-0.2-0.2-0.3l-1.1-1
			c-0.1-0.1-0.2-0.1-0.2,0l-1.6,1.6c-0.1,0.1-0.1,0.2,0,0.2l1.1,1.1c0.1,0.1,0.2,0.1,0.3,0.2l0.8,0.2l7.2,7.2l0.2,0.8
			c0,0.1,0.1,0.2,0.2,0.3l1.1,1.1c0.1,0.1,0.2,0.1,0.2,0l1.6-1.6C41.5,30.2,41.5,30.1,41.5,30.1z"/>
		<line class="st0" x1="30.1" y1="22.3" x2="31.8" y2="20.5"/>
		<line class="st0" x1="40.2" y1="28.9" x2="38.5" y2="30.7"/>
		<path class="st0" d="M34.5,27.3l-2.4,2.4l-0.2,0.8c0,0.1-0.1,0.2-0.2,0.3l-1.1,1.1c-0.1,0.1-0.2,0.1-0.2,0l-1.6-1.6
			c-0.1-0.1-0.1-0.2,0-0.2l1.1-1.1c0.1-0.1,0.2-0.1,0.3-0.2l0.8-0.2l2.4-2.4"/>
		<path class="st0" d="M35.2,24.5l3-3l0.2-0.8c0-0.1,0.1-0.2,0.2-0.3l1.1-1.1c0.1-0.1,0.2-0.1,0.2,0l1.6,1.6c0.1,0.1,0.1,0.2,0,0.2
			l-1.1,1.1c-0.1,0.1-0.2,0.1-0.3,0.2l-0.8,0.2l-3,3"/>
		<line class="st0" x1="40.3" y1="22.3" x2="38.5" y2="20.5"/>
		<line class="st0" x1="30.1" y1="28.9" x2="31.8" y2="30.7"/>
	</g>
</g>
</svg>
