<?xml version="1.0" encoding="utf-8"?>
<!-- Generator: Adobe Illustrator 24.2.1, SVG Export Plug-In . SVG Version: 6.00 Build 0)  -->
<svg version="1.1" id="Layer_1" xmlns="http://www.w3.org/2000/svg" xmlns:xlink="http://www.w3.org/1999/xlink" x="0px" y="0px"
	 width="46px" height="46px" viewBox="0 0 46 46" style="enable-background:new 0 0 46 46;" xml:space="preserve">
<style type="text/css">
	.st0{fill:none;stroke:#000000;stroke-width:0.5;stroke-linecap:round;stroke-linejoin:round;stroke-miterlimit:10;}
</style>
<g>
	<g>
		<path d="M4.1,34.4v-8.6L1.8,27c-0.4-0.7-0.7-1.1-0.8-1.5c-0.1-0.3-0.2-0.6-0.2-0.8c0-0.3,0.1-0.6,0.2-0.8c0.1-0.2,0.4-0.4,0.8-0.6
			l2.9-1.6c0.4-0.2,0.7-0.3,0.9-0.4c0.3-0.1,0.6-0.1,0.9-0.1c0.6,0,1.1,0.1,1.5,0.4v12.8H4.1z"/>
		<path d="M11.7,26.2c0-1.1,0.2-2,0.6-2.7c0.4-0.8,1-1.3,1.7-1.8c0.8-0.4,1.6-0.6,2.6-0.6c1.7,0,2.9,0.5,3.9,1.6
			c0.9,1,1.4,2.5,1.4,4.4c0,1.6-0.3,3-0.9,4.1c-0.6,1.1-1.4,2-2.4,2.6c-1,0.6-2.2,0.9-3.4,0.9c-0.8,0-1.4-0.1-1.7-0.3
			c-0.3-0.2-0.5-0.6-0.5-1.2c0-0.3,0-0.8,0.1-1.4c0.4,0.1,0.8,0.1,1.2,0.1c0.8,0,1.4-0.2,2-0.5c0.5-0.3,0.9-0.8,1.2-1.4
			c-0.5,0.3-1.2,0.5-2,0.5c-0.8,0-1.5-0.2-2-0.6s-1-0.9-1.3-1.5C11.8,27.7,11.7,27,11.7,26.2z M15.7,26.1c0,1.2,0.4,1.9,1.2,1.9
			c0.3,0,0.6,0,0.8-0.1c0-0.4,0.1-0.8,0.1-1.2c0-1.6-0.4-2.4-1.2-2.4c-0.3,0-0.5,0.2-0.7,0.5C15.8,25,15.7,25.5,15.7,26.1z"/>
		<path d="M23.4,26.2c0-1.1,0.2-2,0.6-2.7c0.4-0.8,1-1.3,1.7-1.7c0.8-0.4,1.6-0.6,2.6-0.6c1.7,0,2.9,0.5,3.9,1.6
			c0.9,1,1.4,2.5,1.4,4.4c0,1.6-0.3,3-0.9,4.1s-1.4,2-2.4,2.6c-1,0.6-2.2,0.9-3.4,0.9c-0.8,0-1.4-0.1-1.7-0.3
			c-0.3-0.2-0.5-0.6-0.5-1.2c0-0.3,0-0.8,0.1-1.4c0.4,0.1,0.8,0.1,1.2,0.1c0.8,0,1.4-0.2,2-0.5c0.5-0.3,0.9-0.8,1.2-1.4
			c-0.5,0.3-1.2,0.5-2,0.5c-0.8,0-1.5-0.2-2-0.6s-1-0.9-1.3-1.5C23.5,27.7,23.4,27,23.4,26.2z M27.4,26.1c0,1.2,0.4,1.9,1.2,1.9
			c0.3,0,0.6,0,0.8-0.1c0-0.4,0.1-0.8,0.1-1.2c0-1.6-0.4-2.4-1.2-2.4c-0.3,0-0.5,0.2-0.7,0.5C27.5,25,27.4,25.5,27.4,26.1z"/>
		<path d="M45.2,30.6c0,1.4-0.4,2.4-1.3,3.1s-2.1,1-3.8,1c-1.7,0-3-0.3-3.9-1s-1.3-1.6-1.3-2.9c0-0.8,0.2-1.4,0.6-2s0.9-1,1.5-1.3
			c-1.1-0.6-1.7-1.5-1.7-2.8c0-1.1,0.4-2,1.3-2.7c0.9-0.7,2-1,3.5-1s2.7,0.3,3.5,0.9c0.8,0.6,1.2,1.5,1.2,2.7c0,1.3-0.6,2.2-1.7,2.7
			c0.6,0.2,1.1,0.7,1.5,1.2C45.1,29.3,45.2,29.9,45.2,30.6z M41.3,30.5c0-0.9-0.4-1.4-1.2-1.4c-0.4,0-0.7,0.1-0.9,0.4
			c-0.2,0.2-0.3,0.6-0.3,1c0,0.4,0.1,0.8,0.3,1c0.2,0.2,0.5,0.4,0.9,0.4c0.4,0,0.7-0.1,0.9-0.4C41.2,31.3,41.3,31,41.3,30.5z
			 M41.1,25.1c0-0.5-0.1-0.8-0.2-1.1c-0.2-0.2-0.4-0.4-0.7-0.4c-0.3,0-0.5,0.1-0.7,0.4c-0.2,0.2-0.2,0.6-0.2,1c0,0.4,0.1,0.8,0.2,1
			c0.2,0.2,0.4,0.4,0.7,0.4s0.5-0.1,0.7-0.3C41,25.8,41.1,25.5,41.1,25.1z"/>
	</g>
	<g>
		<path d="M20.5,12.6c0.3,0.1,0.5,0.3,0.7,0.6c0.1,0.2,0.2,0.5,0.3,0.8c0,0.2,0.1,0.5,0.1,1h-3.3c0,0.5,0.1,0.8,0.3,1.1
			c0.2,0.3,0.5,0.4,0.9,0.4c0.4,0,0.7-0.1,0.9-0.4c0.1-0.1,0.2-0.3,0.3-0.5h0.8c0,0.2-0.1,0.3-0.2,0.6c-0.1,0.2-0.2,0.4-0.4,0.5
			c-0.2,0.2-0.5,0.4-0.9,0.5c-0.2,0-0.4,0.1-0.6,0.1c-0.6,0-1-0.2-1.4-0.6c-0.4-0.4-0.6-1-0.6-1.8c0-0.7,0.2-1.3,0.6-1.8
			c0.4-0.4,0.9-0.7,1.5-0.7C19.9,12.4,20.2,12.5,20.5,12.6z M20.8,14.4c0-0.3-0.1-0.6-0.2-0.8c-0.2-0.4-0.6-0.5-1-0.5
			c-0.3,0-0.6,0.1-0.9,0.4c-0.2,0.2-0.4,0.6-0.4,1L20.8,14.4L20.8,14.4z"/>
		<path d="M23,15.6c0,0.2,0.1,0.4,0.2,0.6c0.2,0.2,0.5,0.4,1,0.4c0.3,0,0.5-0.1,0.8-0.2c0.2-0.1,0.3-0.3,0.3-0.6
			c0-0.2-0.1-0.3-0.3-0.4c-0.1-0.1-0.3-0.1-0.7-0.2L23.8,15c-0.4-0.1-0.7-0.2-0.9-0.3c-0.3-0.2-0.5-0.5-0.5-0.9c0-0.4,0.1-0.8,0.5-1
			c0.3-0.3,0.7-0.4,1.3-0.4c0.7,0,1.2,0.2,1.5,0.6c0.2,0.2,0.3,0.5,0.3,0.8h-0.7c0-0.2-0.1-0.3-0.2-0.5c-0.2-0.2-0.5-0.3-0.9-0.3
			c-0.3,0-0.5,0-0.7,0.2c-0.1,0.1-0.2,0.2-0.2,0.4c0,0.2,0.1,0.4,0.3,0.5c0.1,0.1,0.3,0.1,0.5,0.2l0.5,0.1c0.6,0.1,0.9,0.3,1.1,0.4
			c0.3,0.2,0.4,0.5,0.4,0.9s-0.1,0.8-0.5,1c-0.3,0.3-0.8,0.4-1.4,0.4c-0.7,0-1.2-0.1-1.5-0.5c-0.2-0.3-0.4-0.7-0.4-1.2H23z"/>
		<path d="M27,11.2h0.8v1.3h0.7v0.6h-0.7v3c0,0.2,0,0.3,0.2,0.3c0,0,0.2,0,0.3,0c0,0,0.1,0,0.1,0s0.1,0,0.1,0v0.6
			c-0.1,0-0.2,0-0.3,0c-0.1,0-0.2,0-0.3,0c-0.4,0-0.6-0.1-0.7-0.3S27,16.5,27,16.2v-3h-0.6v-0.6H27V11.2z"/>
	</g>
	<line class="st0" x1="33.7" y1="14.2" x2="42" y2="14.2"/>
	<line class="st0" x1="4.1" y1="14.2" x2="12.3" y2="14.2"/>
</g>
</svg>
