<?xml version="1.0" encoding="utf-8"?>
<!-- Generator: Adobe Illustrator 24.2.1, SVG Export Plug-In . SVG Version: 6.00 Build 0)  -->
<svg version="1.1" id="Layer_1" xmlns="http://www.w3.org/2000/svg" xmlns:xlink="http://www.w3.org/1999/xlink" x="0px" y="0px"
	 width="46px" height="46px" viewBox="0 0 46 46" style="enable-background:new 0 0 46 46;" xml:space="preserve">
<style type="text/css">
	.st0{fill:none;stroke:#000000;stroke-width:0.5;stroke-linecap:round;stroke-linejoin:round;stroke-miterlimit:10;}
</style>
<g>
	<g>
		<polygon class="st0" points="2.1,15.5 2.1,37.9 9.9,45.4 43.9,45.4 43.9,15.5 		"/>
		<rect x="2.1" y="5.6" class="st0" width="41.7" height="9.9"/>
		<g>
			<path class="st0" d="M10,0.6v9.9V0.6z"/>
			<path class="st0" d="M7.7,10.6h4.6H7.7z"/>
			<path class="st0" d="M18.7,0.6v9.9V0.6z"/>
			<path class="st0" d="M16.4,10.6H21H16.4z"/>
			<path class="st0" d="M27.4,0.6v9.9V0.6z"/>
			<path class="st0" d="M25,10.6h4.6H25z"/>
			<path class="st0" d="M36,0.6v9.9V0.6z"/>
			<path class="st0" d="M33.7,10.6h4.6H33.7z"/>
		</g>
		<rect x="4.1" y="35.7" class="st0" width="7.7" height="7.7"/>
	</g>
	<g>
		<path class="st0" d="M13.5,23.4c2.1-2.9,5.6-4.9,9.5-4.9s7.3,1.9,9.5,4.9"/>
		<polyline class="st0" points="17.6,22.5 13.5,23.6 13.8,19.3 		"/>
		<path class="st0" d="M32.4,37.4c-2.1,2.9-5.6,4.9-9.5,4.9s-7.3-1.9-9.5-4.9"/>
		<polyline class="st0" points="28.3,38.4 32.4,37.3 32,41.6 		"/>
	</g>
	<g>
		<g>
			<path class="st0" d="M20,33.3c0,1.5,1.3,2.7,2.9,2.7c1.6,0,2.9-1.2,2.9-2.7c0-1.5-1.6-2.2-2.9-2.9c-1.4-0.7-2.9-1.4-2.9-2.9
				s1.3-2.7,2.9-2.7c1.6,0,2.9,1.2,2.9,2.7"/>
			<line class="st0" x1="22.9" y1="24.8" x2="22.9" y2="23"/>
			<line class="st0" x1="22.9" y1="37.9" x2="22.9" y2="36.1"/>
		</g>
	</g>
</g>
</svg>
