<?xml version="1.0" encoding="utf-8"?>
<!-- Generator: Adobe Illustrator 24.2.1, SVG Export Plug-In . SVG Version: 6.00 Build 0)  -->
<svg version="1.1" id="Layer_1" xmlns="http://www.w3.org/2000/svg" xmlns:xlink="http://www.w3.org/1999/xlink" x="0px" y="0px"
	 width="46px" height="46px" viewBox="0 0 46 46" style="enable-background:new 0 0 46 46;" xml:space="preserve">
<style type="text/css">
	.st0{fill:none;stroke:#000000;stroke-width:0.5;stroke-linecap:round;stroke-linejoin:round;stroke-miterlimit:10;}
</style>
<g>
	<path class="st0" d="M30.5,8.5c0-0.1-0.1-0.2-0.2-0.2l-5-0.5l-2-4.5c-0.1-0.2-0.4-0.2-0.5,0l-2,4.6l-5,0.5c-0.1,0-0.2,0.1-0.2,0.2
		c0,0.1,0,0.2,0.1,0.3l3.7,3.3l-1.1,4.9c0,0.1,0,0.2,0.1,0.3c0.1,0.1,0.2,0.1,0.3,0l4.3-2.5l4.3,2.5c0.1,0,0.1,0.1,0.1,0.1
		c0.1,0,0.1,0,0.2-0.1c0.1-0.1,0.1-0.2,0.1-0.3l-1-4.9l3.7-3.3C30.5,8.8,30.5,8.6,30.5,8.5z"/>
	<path class="st0" d="M6.4,20.9l-3.2-0.2c-1.2-0.1-2.2,0.8-2.3,2s0.8,2.2,2,2.2L5.6,25"/>
	<path class="st0" d="M12.4,37.3v4.6c0,0.6-0.5,1-1,1H5.8c-0.6,0-1-0.5-1-1v-5.7"/>
	<path class="st0" d="M43.8,30.9c0,3.6-2.6,6.4-5.9,6.4H8.1c-3.3,0-5.9-2.9-5.9-6.4l0,0c0-3.6,2.6-6.4,5.9-6.4h29.8
		C41.2,24.4,43.8,27.3,43.8,30.9L43.8,30.9z"/>
	<path class="st0" d="M8.9,33.9c-1.6,0-2.8-1.3-2.8-2.8c0-1.6,1.3-2.8,2.8-2.8s2.8,1.3,2.8,2.8C11.7,32.7,10.4,33.9,8.9,33.9z"/>
	<path class="st0" d="M37.1,33.9c-1.6,0-2.8-1.3-2.8-2.8c0-1.6,1.3-2.8,2.8-2.8c1.6,0,2.8,1.3,2.8,2.8
		C39.9,32.7,38.6,33.9,37.1,33.9z"/>
	<path class="st0" d="M39.6,20.9l3.2-0.2c1.2-0.1,2.2,0.8,2.2,2c0.1,1.2-0.8,2.2-2,2.2L40.4,25"/>
	<path class="st0" d="M33.6,37.3v4.6c0,0.6,0.5,1,1,1h5.6c0.6,0,1-0.5,1-1v-5.7"/>
	<path class="st0" d="M19.2,12.1c-3.3,0.2-6.7,0.7-10.4,1.5c-0.8,0.2-1.1,0.9-1.2,1.2c-0.1,0.4-2,10.3-2,10.3"/>
	<path class="st0" d="M40.4,25.1c0,0-1.5-7.4-2-10.4c-0.1-0.3-0.4-1-1.3-1.2c-3-0.6-7.2-1.3-10.2-1.4"/>
</g>
</svg>
