<?xml version="1.0" encoding="utf-8"?>
<!-- Generator: Adobe Illustrator 24.2.1, SVG Export Plug-In . SVG Version: 6.00 Build 0)  -->
<svg version="1.1" id="Layer_1" xmlns="http://www.w3.org/2000/svg" xmlns:xlink="http://www.w3.org/1999/xlink" x="0px" y="0px"
	 width="46px" height="46px" viewBox="0 0 46 46" style="enable-background:new 0 0 46 46;" xml:space="preserve">
<style type="text/css">
	.st0{fill:none;stroke:#000000;stroke-width:0.5;stroke-linecap:round;stroke-linejoin:round;stroke-miterlimit:10;}
</style>
<g>
	<path class="st0" d="M13.1,35l-0.4,4.2H0.3l1.3-14c0.5-3.8,3.6-5.8,6.7-5.5c3.2,0.3,5.2,2.9,5.6,6c0.6,4.8,4,7.7,8.4,8.1
		c1.4,0.1,2.4,1.3,2.3,2.7c-0.1,1.5-1.4,2.3-2.5,2.3l0,0c-6.1-0.4-10.5-4-12.3-8.4"/>
	<path class="st0" d="M22.9,38.5c3.9,0.2,7.9-1.4,10.1-3.3l0.5,4h12.2l-1.3-13.8C44,21.7,41,19.6,37.9,20c-3.1,0.3-5.1,2.8-5.5,5.9
		c-0.6,4.7-4.4,7.8-9.4,8"/>
	<path class="st0" d="M41,12.3c0-3-2.5-5.5-5.5-5.5S30,9.3,30,12.3s2.5,5.5,5.5,5.5C38.5,17.8,41,15.4,41,12.3z"/>
	<path class="st0" d="M16.6,12.3c0-3-2.5-5.5-5.5-5.5s-5.5,2.5-5.5,5.5s2.5,5.5,5.5,5.5C14.2,17.8,16.6,15.4,16.6,12.3z"/>
	<line class="st0" x1="18.6" y1="23.5" x2="19" y2="23.5"/>
	<line class="st0" x1="26.9" y1="23.5" x2="27.4" y2="23.5"/>
	<path class="st0" d="M26.4,27.3c-0.4,0-0.7-0.3-0.7-0.7v-0.9h-5.4v0.9c0,0.4-0.3,0.7-0.7,0.7H18c-0.4,0-0.7-0.3-0.7-0.7v-1.4
		c-0.5-0.4-0.8-1.1-0.8-1.8c0-0.5,0.1-0.9,0.4-1.3C16.4,22,16,21.6,16.1,21c0-0.6,0.5-1,1.1-1c0,0,0.7,0,0.7,0
		c0.1-0.5,0.2-1,0.3-1.6c0-0.3,0.3-0.6,0.7-0.7c1.6-0.3,2.9-0.5,4.2-0.5c1.3,0,2.7,0.1,4.2,0.5c0.4,0.1,0.7,0.4,0.7,0.7
		c0.1,0.6,0.2,1.1,0.3,1.6l0.6,0c0.5,0,1.1,0.3,1.2,1c0,0.5-0.3,1-0.8,1.1c0.3,0.4,0.4,0.8,0.4,1.3c0,0.7-0.3,1.3-0.8,1.8v1.4
		c0,0.4-0.3,0.7-0.7,0.7L26.4,27.3L26.4,27.3z"/>
	<line class="st0" x1="33.2" y1="36.4" x2="32.4" y2="25.8"/>
</g>
</svg>
