<?xml version="1.0" encoding="utf-8"?>
<!-- Generator: Adobe Illustrator 24.2.1, SVG Export Plug-In . SVG Version: 6.00 Build 0)  -->
<svg version="1.1" id="Layer_1" xmlns="http://www.w3.org/2000/svg" xmlns:xlink="http://www.w3.org/1999/xlink" x="0px" y="0px"
	 width="46px" height="46px" viewBox="0 0 46 46" style="enable-background:new 0 0 46 46;" xml:space="preserve">
<style type="text/css">
	.st0{fill:none;stroke:#000000;stroke-width:0.5;stroke-linecap:round;stroke-linejoin:round;stroke-miterlimit:10;}
</style>
<g>
	<line class="st0" x1="43.6" y1="42.6" x2="43.6" y2="19.8"/>
	<line class="st0" x1="2.4" y1="19.8" x2="2.4" y2="42.6"/>
	<rect x="6.4" y="24.9" class="st0" width="6.9" height="6.3"/>
	<polyline class="st0" points="17.4,42.6 17.4,24.9 40.1,24.9 40.1,42.6 	"/>
	<path class="st0" d="M13.3,12.5H2.1c-0.5,0-1,0.4-1.1,1l-0.7,4.9c-0.1,0.5,0.3,1,0.8,1h43.7c0.5,0,0.9-0.4,0.8-1L45,13.5
		c-0.1-0.5-0.6-1-1.1-1H32.7"/>
	<path class="st0" d="M23,16.2c-5.1,0-10.8-2.6-10.8-6.4S17.9,3.3,23,3.3c5.1,0,10.8,2.6,10.8,6.4S28.1,16.2,23,16.2z"/>
	<line class="st0" x1="29.5" y1="9.8" x2="16.5" y2="9.8"/>
	<line class="st0" x1="0.3" y1="42.6" x2="45.7" y2="42.6"/>
	<line class="st0" x1="23.1" y1="36.3" x2="23.8" y2="36.3"/>
	<line class="st0" x1="33.7" y1="36.3" x2="34.3" y2="36.3"/>
	<polyline class="st0" points="32.1,40.7 32.1,39.2 25.3,39.2 25.3,40.7 	"/>
	<path class="st0" d="M21.5,40.7v-2.2c-0.6-0.6-1-1.4-1-2.2c0-0.6,0.2-1.2,0.5-1.7c-0.6-0.2-1.1-0.8-1-1.4c0.1-0.7,0.6-1.3,1.4-1.3
		c0,0,0.8,0.1,0.8,0.1c0.1-0.6,0.3-1.3,0.4-2c0.1-0.4,0.4-0.8,0.8-0.9c2-0.4,3.7-0.6,5.3-0.6c1.6,0,3.3,0.2,5.3,0.6
		c0.5,0.1,0.8,0.5,0.9,0.8c0.1,0.7,0.3,1.4,0.4,2L36,32c0.6,0,1.4,0.4,1.5,1.3c0.1,0.7-0.4,1.3-1,1.4c0.3,0.5,0.5,1.1,0.5,1.7
		c0,0.9-0.4,1.7-1,2.2v2.2"/>
</g>
</svg>
