<?xml version="1.0" encoding="utf-8"?>
<!-- Generator: Adobe Illustrator 24.2.1, SVG Export Plug-In . SVG Version: 6.00 Build 0)  -->
<svg version="1.1" id="Layer_1" xmlns="http://www.w3.org/2000/svg" xmlns:xlink="http://www.w3.org/1999/xlink" x="0px" y="0px"
	 width="46px" height="46px" viewBox="0 0 46 46" style="enable-background:new 0 0 46 46;" xml:space="preserve">
<style type="text/css">
	.st0{fill:none;stroke:#000000;stroke-width:0.5;stroke-linecap:round;stroke-linejoin:round;stroke-miterlimit:10;}
</style>
<g>
	<path class="st0" d="M39.2,16.8c0,13.7-14.9,28.6-16.2,28.6S6.8,30.5,6.8,16.8C6.8,7.8,14.1,0.6,23,0.6S39.2,7.8,39.2,16.8z"/>
	<g>
		<path class="st0" d="M22.7,19.9c0.5,0.5,0.8,1.5,0.8,2c0,0.5,0,1,0.4,1.4l4,4.1c0.6,0.6,1.5,0.6,2.1,0l2.4-2.4
			c0.6-0.6,0.6-1.5,0-2.1l-4-4.1c-0.3-0.3-0.8-0.4-1.3-0.4c-0.6,0-1.4-0.2-2.2-0.7"/>
		<polyline class="st0" points="22,15.7 18.6,12.3 17.7,10.6 15.7,9.4 14.5,10.5 15.8,12.5 17.4,13.4 20.9,16.9 		"/>
		<line class="st0" x1="26.9" y1="23.5" x2="29.3" y2="25.9"/>
		<line class="st0" x1="28.6" y1="21.8" x2="31" y2="24.2"/>
		<path class="st0" d="M28,14.6l-7.6,7.6c0.4,1.3,0.1,2.7-0.7,3.7c-0.3,0.3-0.6,0.6-1,0.8c0,0-0.1,0-0.1,0c0,0,0,0,0-0.1l-0.2-2.5
			l-2.6,0.2l0.2,2.6c0,0,0,0.1,0,0.1c0,0-0.1,0-0.1,0c-0.2-0.1-1-0.3-1.7-1c-1.4-1.4-1.5-3.7-0.2-5.2c1-1.2,2.6-1.6,4.1-1.1l7.6-7.6
			c-0.2-1.1,0.2-2.2,1-2.9c0.3-0.3,0.7-0.5,1.2-0.6c0,0,0.1,0,0.1,0c0,0,0,0,0,0.1l-0.2,2.1l2.1,0.1l0.2-2c0,0,0-0.1,0-0.1
			c0,0,0.1,0,0.1,0C30.4,9,30.7,9.3,31,9.5c1.1,1.3,1,3.2-0.3,4.4C29.9,14.5,29,14.8,28,14.6z"/>
	</g>
</g>
</svg>
