<?xml version="1.0" encoding="utf-8"?>
<!-- Generator: Adobe Illustrator 24.2.1, SVG Export Plug-In . SVG Version: 6.00 Build 0)  -->
<svg version="1.1" id="Layer_1" xmlns="http://www.w3.org/2000/svg" xmlns:xlink="http://www.w3.org/1999/xlink" x="0px" y="0px"
	 width="46px" height="46px" viewBox="0 0 46 46" style="enable-background:new 0 0 46 46;" xml:space="preserve">
<style type="text/css">
	.st0{fill:none;stroke:#000000;stroke-width:0.5;stroke-linecap:round;stroke-linejoin:round;}
	.st1{fill:none;stroke:#000000;stroke-width:0.5;stroke-linecap:round;stroke-linejoin:round;stroke-miterlimit:10;}
</style>
<g>
	<path class="st0" d="M40.5,24.6c-1.7-1.3-2.5-2-4.2-3.3c-0.7-0.6-1.3,0-1.3,0c-2.8,3.2-7.3,9.2-10.8,14.5c-3.8,5.9-3.2,7.6-3.2,7.6
		c-0.3,0.5-0.8,1.7-0.2,2.1c0.5,0.4,1.5-0.3,2-0.7c0,0,1.8,0.2,6.7-5c4.3-4.6,8.7-10,11.4-13.8C41.1,25.6,40.9,25,40.5,24.6z"/>
	<path class="st0" d="M32.4,20.4c-2.5,2.7-4.7,5.5-6.7,8.6"/>
	<line class="st0" x1="24.2" y1="35.8" x2="29.5" y2="39.7"/>
	<path class="st0" d="M40.2,24.4l1.6-2c0.2-0.2,0-0.6-0.3-0.9l-2.3-1.8c-0.3-0.3-0.8-0.3-1,0l-1.6,2"/>
	<path class="st1" d="M29.8,5.9c0-0.9-0.8-1.7-1.7-1.7h-4.4c-0.1,0-0.6,0-0.7-0.6c-0.3-1.8-1.9-3.2-3.8-3.2c-1.9,0-3.5,1.3-3.8,3.2
		c-0.1,0.5-0.6,0.6-0.7,0.6h-4.4c-0.9,0-1.7,0.8-1.7,1.7v4.7h21.4C29.8,10.5,29.8,5.9,29.8,5.9z"/>
	<path class="st1" d="M19.1,3.2c-0.8,0-1.4,0.6-1.4,1.4S18.3,6,19.1,6c0.8,0,1.4-0.6,1.4-1.4S19.8,3.2,19.1,3.2z"/>
	<rect x="8.2" y="14.9" class="st1" width="3.3" height="3.3"/>
	<line class="st1" x1="14" y1="16.5" x2="29.8" y2="16.5"/>
	<rect x="8.2" y="23" class="st1" width="3.3" height="3.3"/>
	<line class="st1" x1="14" y1="24.6" x2="25.2" y2="24.6"/>
	<rect x="8.2" y="31.1" class="st1" width="3.3" height="3.3"/>
	<line class="st1" x1="14" y1="32.8" x2="22.3" y2="32.8"/>
	<polyline class="st1" points="17.7,40 4.1,40 4.1,6.9 6.2,6.9 	"/>
	<polyline class="st1" points="32.1,6.9 34,6.9 34,18.1 	"/>
</g>
</svg>
