<?xml version="1.0" encoding="utf-8"?>
<!-- Generator: Adobe Illustrator 24.2.1, SVG Export Plug-In . SVG Version: 6.00 Build 0)  -->
<svg version="1.1" id="Layer_1" xmlns="http://www.w3.org/2000/svg" xmlns:xlink="http://www.w3.org/1999/xlink" x="0px" y="0px"
	 width="46px" height="46px" viewBox="0 0 46 46" style="enable-background:new 0 0 46 46;" xml:space="preserve">
<style type="text/css">
	.st0{fill:none;stroke:#000000;stroke-width:0.5;stroke-linecap:round;stroke-linejoin:round;stroke-miterlimit:10;}
</style>
<g>
	<g>
		<g>
			<path class="st0" d="M9.2,31.7c0,1.8,1.6,3.2,3.5,3.2s3.5-1.4,3.5-3.2c0-1.8-1.9-2.6-3.5-3.4c-1.6-0.8-3.5-1.6-3.5-3.4
				c0-1.8,1.5-3.2,3.5-3.2s3.5,1.4,3.5,3.2"/>
			<line class="st0" x1="12.6" y1="21.7" x2="12.6" y2="19.5"/>
			<line class="st0" x1="12.6" y1="37.1" x2="12.6" y2="34.9"/>
		</g>
	</g>
	<g>
		<g>
			<g>
				<path class="st0" d="M25.5,44.9c-0.9,0-1.6-0.7-1.6-1.6V17.9c0-0.9,0.7-1.6,1.6-1.6h17.4c0.9,0,1.6,0.7,1.6,1.6v25.3
					c0,0.9-0.7,1.6-1.6,1.6H25.5z"/>
				<line class="st0" x1="27.3" y1="25.7" x2="44.4" y2="25.7"/>
				<line class="st0" x1="30.8" y1="25.8" x2="30.8" y2="44.8"/>
				<line class="st0" x1="37.6" y1="25.8" x2="37.6" y2="44.8"/>
				<line class="st0" x1="27.3" y1="32.1" x2="44.4" y2="32.1"/>
				<line class="st0" x1="27.3" y1="38.5" x2="37.5" y2="38.5"/>
			</g>
		</g>
		<g>
			<polyline class="st0" points="11.5,5.3 11.5,11.1 5.7,11.1 			"/>
			<g>
				<polyline class="st0" points="19.6,44.9 1.5,44.9 1.5,9.6 10,1.1 34.4,1.1 34.4,12.3 				"/>
			</g>
		</g>
	</g>
</g>
</svg>
