<?xml version="1.0" encoding="utf-8"?>
<!-- Generator: Adobe Illustrator 24.2.1, SVG Export Plug-In . SVG Version: 6.00 Build 0)  -->
<svg version="1.1" id="Layer_1" xmlns="http://www.w3.org/2000/svg" xmlns:xlink="http://www.w3.org/1999/xlink" x="0px" y="0px"
	 width="46px" height="46px" viewBox="0 0 46 46" style="enable-background:new 0 0 46 46;" xml:space="preserve">
<style type="text/css">
	.st0{fill:none;stroke:#000000;stroke-width:0.5;stroke-linecap:round;stroke-linejoin:round;stroke-miterlimit:10;}
</style>
<g>
	<path class="st0" d="M28.6,21.4v4.4c0,1.1-0.9,2-2,2h-8.2c-1.1,0-2-0.9-2-2v-8.2c0-1.1,0.9-2,2-2h8.2"/>
	<polyline class="st0" points="20.4,20.7 22.4,22.7 29.6,15.6 	"/>
	<path class="st0" d="M22.3,44.6c0.5,0.2,0.9,0.2,1.4,0C29.6,42.3,40,35,40,28.5V8.4c0-1-0.8-1.9-1.8-1.9c-7.7-0.4-12-3.2-14-4.8
		c-0.7-0.6-1.7-0.6-2.4,0c-1.9,1.7-6.3,4.5-14,4.8C6.8,6.6,6,7.4,6,8.4c0,5.3,0,20.1,0,20.1C6,35,16.5,42.3,22.3,44.6z"/>
</g>
</svg>
